<?xml version="1.0" encoding="UTF-8"?>
<svg width="259px" height="91px" viewBox="0 0 259 91" version="1.1" xmlns="http://www.w3.org/2000/svg" xmlns:xlink="http://www.w3.org/1999/xlink">
    <!-- Generator: Sketch 41.2 (35397) - http://www.bohemiancoding.com/sketch -->
    <title>White</title>
    <desc>Created with Sketch.</desc>
    <defs>
        <polygon id="path-1" points="0.276 18.94 16.549 18.94 16.549 0.471 0.276 0.471 0.276 18.94"></polygon>
    </defs>
    <g id="Page-1" stroke="none" stroke-width="1" fill="none" fill-rule="evenodd">
        <g id="White">
            <g id="RoS-new-identity_Granite_lscape">
                <path d="M23.85,30.749 L37.936,45.007 L23.85,59.267 L23.85,51.9 C10.65,51.692 0,40.798 0,27.386 C0,13.846 10.842,2.871 24.22,2.871 C29.784,2.871 34.909,4.771 39,7.963 C36.231,10.948 34.092,14.542 32.8,18.521 C30.589,16.327 27.561,14.977 24.22,14.977 C17.446,14.977 11.958,20.531 11.958,27.386 C11.958,34.111 17.254,39.586 23.85,39.792 L23.85,30.749" id="Fill-1" fill="#FFFFFF"></path>
                <path d="M41.929,40.929 L27.841,26.669 L35.119,26.669 C35.321,13.309 46.086,2.526 59.335,2.526 C72.712,2.526 83.555,13.503 83.555,27.042 C83.555,32.675 81.682,37.862 78.525,42.003 C75.577,39.2 72.028,37.035 68.095,35.728 C70.262,33.491 71.597,30.425 71.597,27.042 C71.597,20.188 66.109,14.631 59.335,14.631 C52.691,14.631 47.282,19.994 47.078,26.669 L56.015,26.669 L41.929,40.929 Z" id="Fill-2" fill="#FFFFFF"></path>
                <path d="M60.044,59.226 L45.956,44.966 L60.044,30.708 L60.044,38.072 C73.245,38.281 83.897,49.177 83.897,62.587 C83.897,76.126 73.053,87.105 59.675,87.105 C54.111,87.105 48.986,85.204 44.895,82.01 C47.664,79.025 49.803,75.434 51.093,71.452 C53.306,73.647 56.334,74.999 59.675,74.999 C66.449,74.999 71.937,69.442 71.937,62.587 C71.937,55.862 66.641,50.387 60.044,50.18 L60.044,59.226" id="Fill-3" fill="#FFFFFF"></path>
                <path d="M27.88,63.305 L41.967,49.046 L56.053,63.305 L48.777,63.305 C48.571,76.666 37.809,87.449 24.558,87.449 C11.182,87.449 0.34,76.472 0.34,62.934 C0.34,57.3 2.214,52.11 5.37,47.972 C8.319,50.775 11.869,52.938 15.801,54.245 C13.633,56.483 12.298,59.549 12.298,62.934 C12.298,69.786 17.787,75.342 24.561,75.342 C31.204,75.342 36.613,69.982 36.817,63.305 L27.88,63.305" id="Fill-4" fill="#FFFFFF"></path>
                <path d="M106.208,12.019 L107.678,12.019 C109.087,12.019 110.108,11.659 110.708,11.029 C111.277,10.459 111.547,9.619 111.547,8.569 C111.547,7.639 111.308,6.949 110.828,6.469 C110.198,5.839 109.208,5.599 107.648,5.599 L106.208,5.599 L106.208,12.019 L106.208,12.019 Z M107.228,2.119 C110.618,2.089 112.868,2.54 114.427,4.159 C115.387,5.149 115.927,6.619 115.927,8.509 C115.927,11.329 114.608,13.369 112.208,14.628 L112.898,15.888 C114.698,19.159 116.137,21.318 117.488,23.119 C117.757,23.478 117.608,23.718 116.318,23.718 L114.667,23.718 C113.648,23.718 113.228,23.688 112.808,23.268 C112.058,22.459 110.978,20.718 109.118,17.268 L108.127,15.439 L106.208,15.439 L106.208,23.268 C106.208,23.628 105.758,23.718 104.168,23.718 L103.838,23.718 C102.158,23.718 101.858,23.628 101.858,23.268 L101.858,2.569 C101.858,2.179 102.039,2.119 103.208,2.119 L107.228,2.119 L107.228,2.119 Z" id="Fill-5" fill="#FFFFFF"></path>
                <path d="M129.041,14.269 C128.86,12.409 127.93,11.029 126.25,11.029 C124.6,11.029 123.52,12.258 123.13,14.269 L129.041,14.269 L129.041,14.269 Z M123.13,17.209 C123.46,19.338 124.81,20.508 127.089,20.508 C128.56,20.508 129.97,20.119 131.32,19.548 C131.65,19.398 131.8,19.518 132.13,20.419 L132.4,21.169 C132.76,22.188 132.73,22.369 132.371,22.579 C130.871,23.419 128.65,24.018 126.55,24.018 C121.84,24.018 118.84,21.079 118.84,15.979 C118.84,11.059 121.63,7.579 126.22,7.579 C130.78,7.579 133.15,10.969 133.15,15.649 C133.15,16.819 133.089,17.209 132.85,17.209 L123.13,17.209 L123.13,17.209 Z" id="Fill-6" fill="#FFFFFF"></path>
                <path d="M145.75,12.949 C145.089,11.718 144.07,11.119 143.02,11.119 C141.01,11.119 139.781,12.679 139.781,15.919 C139.781,18.798 140.89,20.298 143.081,20.298 C143.92,20.298 144.88,19.999 145.331,19.518 C145.66,19.159 145.75,18.678 145.75,17.899 L145.75,12.949 L145.75,12.949 Z M148.06,7.878 C149.23,7.878 149.47,7.909 149.589,8.239 C149.86,9.019 149.86,11.958 149.86,14.569 L149.86,22.428 C149.86,25.338 149.23,27.408 148.03,28.728 C146.8,30.078 144.97,30.708 142.541,30.708 C140.741,30.708 138.731,30.169 137.531,29.478 C137.231,29.298 137.14,29.088 137.621,27.948 L137.831,27.438 C138.25,26.448 138.43,26.209 138.76,26.358 C139.81,26.838 141.13,27.228 142.3,27.228 C144.52,27.228 145.75,26.088 145.75,22.878 L145.75,22.428 C144.73,23.298 143.38,23.778 141.91,23.778 C137.981,23.778 135.55,20.838 135.55,15.919 C135.581,10.609 138.34,7.579 142.121,7.579 C143.741,7.579 145.121,8.359 146.11,9.439 C146.14,9.139 146.291,8.359 146.35,8.209 C146.44,7.999 146.44,7.878 147.76,7.878 L148.06,7.878 L148.06,7.878 Z" id="Fill-7" fill="#FFFFFF"></path>
                <path d="M156.1,7.878 C157.87,7.878 158.05,7.999 158.05,8.329 L158.05,23.268 C158.05,23.598 157.87,23.718 156.1,23.718 L155.95,23.718 C154,23.718 153.94,23.598 153.94,23.268 L153.94,8.329 C153.94,7.999 154,7.878 155.95,7.878 L156.1,7.878 L156.1,7.878 Z M155.92,0.559 C157.36,0.559 158.44,1.699 158.44,3.019 C158.44,4.339 157.36,5.479 155.92,5.479 C154.48,5.479 153.4,4.339 153.4,3.019 C153.4,1.699 154.48,0.559 155.92,0.559 L155.92,0.559 Z" id="Fill-8" fill="#FFFFFF"></path>
                <path d="M161.919,20.329 C162.429,19.428 162.7,19.159 163.03,19.398 C164.2,20.178 165.61,20.688 166.869,20.688 C168.459,20.688 169.389,20.088 169.389,19.279 C169.389,16.939 161.709,18.378 161.709,12.649 C161.709,9.499 164.41,7.579 167.919,7.579 C169.9,7.579 171.61,8.119 172.869,9.079 C173.169,9.288 173.11,9.529 172.509,10.548 L172.24,10.969 C171.7,11.899 171.49,12.048 171.16,11.838 C170.2,11.239 169.27,10.878 168.099,10.878 C167.23,10.878 166.54,11.059 166.15,11.389 C165.879,11.628 165.73,11.899 165.73,12.258 C165.73,14.508 173.41,13.338 173.41,18.739 C173.41,20.119 172.839,21.438 171.879,22.369 C170.769,23.449 169.119,24.018 166.929,24.018 C164.619,24.018 162.58,23.268 161.35,22.218 C161.11,22.008 161.139,21.739 161.619,20.869 L161.919,20.329" id="Fill-9" fill="#FFFFFF"></path>
                <path d="M179.53,3.559 C181.299,3.559 181.479,3.679 181.479,4.009 L181.479,7.878 L185.049,7.878 C185.319,7.878 185.439,7.939 185.439,9.378 L185.439,9.588 C185.439,11.029 185.319,11.088 185.049,11.088 L181.479,11.088 L181.479,18.499 C181.479,19.369 181.629,19.848 181.99,20.178 C182.29,20.449 182.74,20.598 183.309,20.598 C183.79,20.598 184.33,20.478 184.869,20.298 C185.169,20.209 185.319,20.388 185.649,21.499 L185.74,21.798 C186.069,22.909 186.04,23.088 185.679,23.268 C184.718,23.749 183.399,24.018 182.229,24.018 C180.549,24.018 179.379,23.568 178.599,22.788 C177.759,21.949 177.369,20.688 177.369,18.739 L177.369,11.088 L175.299,11.088 C175.03,11.088 174.91,11.029 174.91,9.588 L174.91,9.378 C174.91,7.939 175.03,7.878 175.299,7.878 L177.369,7.878 L177.369,4.009 C177.369,3.679 177.429,3.559 179.379,3.559 L179.53,3.559" id="Fill-10" fill="#FFFFFF"></path>
                <path d="M197.95,14.269 C197.77,12.409 196.839,11.029 195.16,11.029 C193.51,11.029 192.43,12.258 192.04,14.269 L197.95,14.269 L197.95,14.269 Z M192.04,17.209 C192.369,19.338 193.72,20.508 196,20.508 C197.468,20.508 198.879,20.119 200.23,19.548 C200.559,19.398 200.709,19.518 201.04,20.419 L201.309,21.169 C201.669,22.188 201.639,22.369 201.28,22.579 C199.78,23.419 197.56,24.018 195.459,24.018 C190.75,24.018 187.75,21.079 187.75,15.979 C187.75,11.059 190.54,7.579 195.129,7.579 C199.69,7.579 202.059,10.969 202.059,15.649 C202.059,16.819 202,17.209 201.759,17.209 L192.04,17.209 L192.04,17.209 Z" id="Fill-11" fill="#FFFFFF"></path>
                <path d="M207.16,7.878 C208.629,7.878 208.9,7.939 208.99,8.269 C209.08,8.538 209.29,10.159 209.35,11.359 C210.31,8.899 211.57,7.579 213.49,7.579 C213.79,7.579 214.06,7.609 214.27,7.699 C214.48,7.788 214.54,7.849 214.54,9.199 L214.54,9.619 C214.54,11.149 214.45,11.208 214.119,11.239 C212.44,11.389 211.39,12.109 210.61,13.279 C209.86,14.419 209.5,16.128 209.5,18.949 L209.5,23.268 C209.5,23.598 209.32,23.718 207.55,23.718 L207.4,23.718 C205.45,23.718 205.39,23.598 205.39,23.268 L205.39,14.989 C205.39,12.649 205.3,10.038 205.18,8.418 C205.15,7.999 205.27,7.878 206.98,7.878 L207.16,7.878" id="Fill-12" fill="#FFFFFF"></path>
                <path d="M216.968,20.329 C217.48,19.428 217.75,19.159 218.08,19.398 C219.25,20.178 220.66,20.688 221.919,20.688 C223.509,20.688 224.439,20.088 224.439,19.279 C224.439,16.939 216.759,18.378 216.759,12.649 C216.759,9.499 219.459,7.579 222.968,7.579 C224.95,7.579 226.66,8.119 227.919,9.079 C228.218,9.288 228.159,9.529 227.559,10.548 L227.29,10.969 C226.75,11.899 226.54,12.048 226.209,11.838 C225.25,11.239 224.319,10.878 223.149,10.878 C222.28,10.878 221.589,11.059 221.2,11.389 C220.929,11.628 220.78,11.899 220.78,12.258 C220.78,14.508 228.459,13.338 228.459,18.739 C228.459,20.119 227.889,21.438 226.929,22.369 C225.819,23.449 224.169,24.018 221.979,24.018 C219.669,24.018 217.629,23.268 216.4,22.218 C216.16,22.008 216.19,21.739 216.669,20.869 L216.968,20.329" id="Fill-13" fill="#FFFFFF"></path>
                <path d="M106.088,48.02 C106.088,50.93 107.048,52.58 109.148,52.58 C111.518,52.58 112.538,50.78 112.538,47.78 C112.538,44.871 111.578,43.22 109.478,43.22 C107.108,43.22 106.088,45.02 106.088,48.02 L106.088,48.02 Z M116.768,47.6 C116.768,53.03 114.068,56.12 109.058,56.12 C104.588,56.12 101.858,53.39 101.858,48.2 C101.858,42.77 104.558,39.68 109.568,39.68 C114.038,39.68 116.768,42.411 116.768,47.6 L116.768,47.6 Z" id="Fill-14" fill="#FFFFFF"></path>
                <path d="M120.847,39.98 L120.847,39.26 C120.847,37.071 121.448,35.391 122.528,34.281 C123.548,33.231 125.018,32.721 126.847,32.721 C127.958,32.721 129.158,32.931 130.148,33.291 C130.417,33.38 130.447,33.621 130.208,34.67 L130.087,35.181 C129.847,36.231 129.697,36.411 129.458,36.351 C128.768,36.201 128.167,36.111 127.538,36.111 C126.578,36.111 125.917,36.351 125.528,36.89 C125.138,37.43 124.958,38.271 124.958,39.38 L124.958,39.98 L128.408,39.98 C128.678,39.98 128.797,40.041 128.797,41.48 L128.797,41.69 C128.797,43.13 128.678,43.19 128.408,43.19 L124.958,43.19 L124.958,55.37 C124.958,55.7 124.778,55.82 123.008,55.82 L122.858,55.82 C120.908,55.82 120.847,55.7 120.847,55.37 L120.847,43.19 L118.748,43.19 C118.478,43.19 118.358,43.13 118.358,41.69 L118.358,41.48 C118.358,40.041 118.478,39.98 118.748,39.98 L120.847,39.98" id="Fill-15" fill="#FFFFFF"></path>
                <path d="M150.876,37.791 C150.337,38.901 150.158,38.961 149.797,38.72 C148.477,37.911 147.458,37.461 146.078,37.461 C144.368,37.461 143.257,38.481 143.257,39.89 C143.257,41.42 144.908,42.17 146.618,43.041 C149.197,44.36 152.047,45.831 152.047,49.61 C152.047,53.42 149.587,56.12 144.757,56.12 C142.148,56.12 139.748,55.25 138.308,54.08 C137.917,53.75 137.888,53.42 138.398,52.43 L138.758,51.711 C139.268,50.75 139.538,50.51 139.928,50.78 C141.368,51.8 142.928,52.49 144.488,52.49 C146.438,52.49 147.728,51.59 147.728,49.94 C147.728,48.081 146.018,47.36 144.217,46.461 C141.698,45.23 138.938,43.791 138.938,40.251 C138.938,36.231 142.118,33.92 145.868,33.92 C147.877,33.92 149.858,34.491 151.297,35.51 C151.747,35.84 151.687,36.14 151.177,37.191 L150.876,37.791" id="Fill-16" fill="#FFFFFF"></path>
                <path d="M166.987,43.52 C166.417,44.6 166.177,44.6 165.907,44.42 C164.827,43.67 163.867,43.25 162.578,43.25 C160.538,43.25 158.828,44.6 158.828,47.81 C158.828,50.84 160.147,52.55 162.757,52.55 C163.987,52.55 164.947,52.22 166.087,51.68 C166.447,51.5 166.537,51.62 167.047,52.79 L167.226,53.209 C167.677,54.26 167.647,54.44 167.376,54.62 C166.147,55.459 164.288,56.12 162.217,56.12 C160.057,56.12 158.227,55.49 156.967,54.32 C155.437,52.91 154.597,50.72 154.597,48.02 C154.597,45.44 155.377,43.281 156.788,41.81 C158.107,40.461 159.967,39.68 162.427,39.68 C164.347,39.68 166.177,40.34 167.527,41.451 C167.857,41.72 167.797,41.961 167.287,42.951 L166.987,43.52" id="Fill-17" fill="#FFFFFF"></path>
                <path d="M173.797,48.02 C173.797,50.93 174.757,52.58 176.857,52.58 C179.226,52.58 180.247,50.78 180.247,47.78 C180.247,44.871 179.287,43.22 177.187,43.22 C174.817,43.22 173.797,45.02 173.797,48.02 L173.797,48.02 Z M184.476,47.6 C184.476,53.03 181.777,56.12 176.767,56.12 C172.297,56.12 169.567,53.39 169.567,48.2 C169.567,42.77 172.267,39.68 177.277,39.68 C181.747,39.68 184.476,42.411 184.476,47.6 L184.476,47.6 Z" id="Fill-18" fill="#FFFFFF"></path>
                <path d="M190.626,35.661 C192.397,35.661 192.576,35.781 192.576,36.111 L192.576,39.98 L196.147,39.98 C196.417,39.98 196.537,40.041 196.537,41.48 L196.537,41.69 C196.537,43.13 196.417,43.19 196.147,43.19 L192.576,43.19 L192.576,50.6 C192.576,51.47 192.726,51.95 193.087,52.28 C193.387,52.55 193.837,52.7 194.406,52.7 C194.887,52.7 195.427,52.58 195.967,52.4 C196.267,52.31 196.417,52.49 196.747,53.6 L196.837,53.9 C197.167,55.01 197.137,55.19 196.777,55.37 C195.817,55.85 194.497,56.12 193.326,56.12 C191.647,56.12 190.476,55.67 189.697,54.89 C188.857,54.05 188.467,52.79 188.467,50.84 L188.467,43.19 L186.397,43.19 C186.126,43.19 186.007,43.13 186.007,41.69 L186.007,41.48 C186.007,40.041 186.126,39.98 186.397,39.98 L188.467,39.98 L188.467,36.111 C188.467,35.781 188.527,35.661 190.476,35.661 L190.626,35.661" id="Fill-19" fill="#FFFFFF"></path>
                <path d="M201.637,33.021 C203.347,33.021 203.556,33.111 203.618,33.411 C203.797,34.281 203.887,38.09 203.887,42.14 L203.887,51.68 C203.887,52.37 204.126,52.7 204.876,52.7 L205.238,52.7 C205.507,52.7 205.538,52.91 205.538,54.02 L205.538,54.29 C205.538,55.37 205.507,55.49 205.267,55.61 C204.818,55.82 204.038,55.97 203.257,55.97 C202.177,55.97 201.308,55.64 200.738,55.07 C200.018,54.35 199.777,53.33 199.777,51.92 L199.777,41.51 C199.777,38.661 199.626,34.491 199.538,33.411 C199.507,33.081 199.538,33.021 201.488,33.021 L201.637,33.021" id="Fill-20" fill="#FFFFFF"></path>
                <path d="M217.835,44.69 C217.267,43.82 216.277,43.25 215.226,43.25 C213.037,43.25 212.017,44.991 212.017,48.081 C212.017,50.75 212.737,52.67 215.167,52.67 C216.126,52.67 216.997,52.31 217.417,51.77 C217.747,51.35 217.835,50.81 217.835,50.09 L217.835,44.69 L217.835,44.69 Z M218.317,40.371 C218.347,40.1 218.466,39.98 220.085,39.98 L220.267,39.98 C221.796,39.98 222.005,40.071 222.005,40.401 C222.005,41.39 221.947,44.42 221.947,46.88 L221.947,48.711 C221.947,51.05 222.037,53.66 222.156,55.28 C222.187,55.7 222.156,55.82 220.447,55.82 L220.296,55.82 C218.826,55.82 218.585,55.76 218.466,55.43 C218.376,55.25 218.317,54.77 218.255,54.41 C217.357,55.43 215.677,56.12 214.147,56.12 C210.217,56.12 207.788,53.12 207.788,48.2 C207.788,42.741 210.817,39.68 214.417,39.68 C216.037,39.68 217.505,40.461 218.197,41.451 L218.317,40.371 L218.317,40.371 Z" id="Fill-21" fill="#FFFFFF"></path>
                <path d="M227.767,39.98 C229.237,39.98 229.505,40.041 229.626,40.371 C229.716,40.64 229.777,41.121 229.835,41.571 C230.796,40.461 232.357,39.68 234.185,39.68 C236.016,39.68 237.457,40.281 238.356,41.3 C239.346,42.411 239.766,43.85 239.766,46.13 L239.766,55.37 C239.766,55.7 239.585,55.82 237.816,55.82 L237.667,55.82 C235.716,55.82 235.656,55.7 235.656,55.37 L235.656,47.27 C235.656,45.201 235.537,44.57 235.056,44.031 C234.667,43.581 233.917,43.34 233.046,43.34 C232.357,43.34 231.576,43.491 231.037,43.82 C230.406,44.211 230.255,44.69 230.197,45.411 C230.136,46.1 230.136,47.211 230.136,48.35 L230.136,55.37 C230.136,55.7 229.957,55.82 228.187,55.82 L228.037,55.82 C226.085,55.82 226.027,55.7 226.027,55.37 L226.027,47.09 C226.027,44.75 225.937,42.14 225.817,40.52 C225.787,40.1 225.906,39.98 227.617,39.98 L227.767,39.98" id="Fill-22" fill="#FFFFFF"></path>
                <path d="M252.935,44.6 C252.185,43.701 251.287,43.22 250.236,43.22 C248.046,43.22 246.997,44.961 246.997,48.14 C246.997,49.91 247.417,51.05 248.016,51.74 C248.556,52.37 249.426,52.61 250.265,52.61 C251.105,52.61 252.066,52.31 252.515,51.83 C252.846,51.47 252.935,50.99 252.935,50.211 L252.935,44.6 L252.935,44.6 Z M255.096,33.021 C256.865,33.021 257.046,33.141 257.046,33.471 L257.046,51.8 C257.046,52.461 257.316,52.64 257.917,52.64 C258.276,52.64 258.306,52.79 258.306,53.87 L258.306,54.2 C258.306,55.25 258.246,55.49 258.035,55.58 C257.497,55.79 256.685,55.94 255.876,55.94 C254.556,55.94 253.656,55.339 253.265,54.44 C252.247,55.52 250.747,56.12 249.096,56.12 C245.167,56.12 242.767,53.06 242.767,48.14 C242.767,42.831 245.437,39.68 249.367,39.68 C250.776,39.68 251.947,40.161 252.935,41.031 L252.935,33.471 C252.935,33.141 252.997,33.021 254.946,33.021 L255.096,33.021 L255.096,33.021 Z" id="Fill-23" fill="#FFFFFF"></path>
                <path d="M102.962,72.711 C103.827,72.711 103.946,72.782 103.946,72.999 L103.995,75.471 C104.907,73.455 106.226,72.566 107.499,72.566 C107.714,72.566 107.882,72.591 108.002,72.614 C108.218,72.663 108.243,72.734 108.243,73.287 L108.243,73.647 C108.243,74.343 108.218,74.535 107.979,74.535 C106.274,74.535 105.411,75.591 104.714,76.719 C104.378,77.272 104.186,77.943 104.138,78.783 C104.09,79.455 104.066,80.943 104.066,82.336 L104.066,85.096 C104.066,85.264 104.042,85.384 103.083,85.384 L102.938,85.384 C101.978,85.384 101.906,85.288 101.906,85.096 L101.906,76.911 C101.906,75.279 101.858,73.599 101.858,72.999 C101.858,72.807 101.93,72.711 102.842,72.711 L102.962,72.711" id="Fill-24" fill="#FFFFFF"></path>
                <path d="M111.621,79.167 C111.621,81.327 112.34,83.704 114.957,83.704 C116.877,83.704 118.582,82.359 118.582,78.927 C118.582,76.767 117.861,74.391 115.245,74.391 C113.325,74.391 111.621,75.735 111.621,79.167 L111.621,79.167 Z M118.941,73.671 C120.141,74.727 120.837,76.503 120.837,78.759 C120.837,83.296 118.461,85.624 114.861,85.624 C113.397,85.624 112.172,85.24 111.26,84.424 C110.061,83.367 109.365,81.592 109.365,79.335 C109.365,74.799 111.741,72.471 115.341,72.471 C116.805,72.471 118.029,72.855 118.941,73.671 L118.941,73.671 Z" id="Fill-25" fill="#FFFFFF"></path>
                <path d="M131.205,74.895 C130.773,75.519 130.653,75.519 130.485,75.375 C129.597,74.751 128.757,74.318 127.701,74.318 C126.716,74.318 125.3,74.703 125.3,76.024 C125.3,77.319 126.645,77.655 127.796,77.943 C129.765,78.447 131.853,79.167 131.853,81.663 C131.853,84.231 129.693,85.624 127.052,85.624 C125.516,85.624 124.029,85.071 123.117,84.424 C122.876,84.256 122.949,84.111 123.212,83.56 L123.333,83.296 C123.644,82.624 123.741,82.6 124.052,82.792 C124.964,83.319 126.117,83.752 127.172,83.752 C128.277,83.752 129.813,83.199 129.813,81.808 C129.813,80.512 128.277,80.079 127.052,79.815 C125.781,79.527 124.844,79.191 124.197,78.591 C123.596,78.039 123.237,77.199 123.237,76.263 C123.237,73.911 125.277,72.471 127.677,72.471 C129.189,72.471 130.581,72.999 131.469,73.791 C131.661,73.959 131.709,74.175 131.374,74.655 L131.205,74.895" id="Fill-26" fill="#FFFFFF"></path>
                <g id="Group-30" transform="translate(134.000000, 72.000000)">
                    <mask id="mask-2" fill="white">
                        <use xlink:href="#path-1"></use>
                    </mask>
                    <g id="Clip-28"></g>
                    <path d="M3.516,12.016 C3.516,12.903 2.796,13.624 1.884,13.624 C0.997,13.624 0.276,12.903 0.276,12.016 C0.276,11.104 0.997,10.384 1.884,10.384 C2.796,10.384 3.516,11.104 3.516,12.016" id="Fill-27" fill="#FFFFFF" mask="url(#mask-2)"></path>
                    <path d="M14.389,6.567 C14.389,4.959 14.317,4.335 14.029,3.783 C13.645,3.039 12.805,2.487 11.437,2.487 C9.348,2.487 8.029,4.311 8.029,7.096 C8.029,9.88 9.109,11.44 11.317,11.44 C12.517,11.44 13.741,10.84 14.389,10.024 L14.389,6.567 L14.389,6.567 Z M15.445,0.711 C16.213,0.711 16.381,0.782 16.405,1.023 C16.501,2.199 16.549,5.583 16.549,6.976 L16.549,10.96 C16.549,13.048 16.429,14.368 16.093,15.472 C15.397,17.752 13.212,19 10.789,19 C9.588,19 7.932,18.712 7.165,18.256 C7.02,18.185 6.997,17.968 7.188,17.416 L7.285,17.128 C7.476,16.552 7.573,16.456 7.693,16.456 C7.812,16.456 8.077,16.576 8.268,16.649 C8.964,16.888 9.661,17.056 10.548,17.056 C12.588,17.056 13.861,16.192 14.245,14.32 C14.365,13.696 14.389,12.664 14.389,12.016 C13.525,12.952 12.109,13.384 10.884,13.384 C7.428,13.384 5.772,10.72 5.772,7.191 C5.796,3.039 8.149,0.471 11.245,0.471 C12.613,0.471 13.789,1.047 14.365,2.007 L14.389,2.007 L14.389,1.023 C14.389,0.807 14.557,0.711 15.374,0.711 L15.445,0.711 L15.445,0.711 Z" id="Fill-29" fill="#FFFFFF" mask="url(#mask-2)"></path>
                </g>
                <path d="M155.588,79.167 C155.588,81.327 156.308,83.704 158.924,83.704 C160.844,83.704 162.549,82.359 162.549,78.927 C162.549,76.767 161.829,74.391 159.212,74.391 C157.292,74.391 155.588,75.735 155.588,79.167 L155.588,79.167 Z M162.909,73.671 C164.109,74.727 164.805,76.503 164.805,78.759 C164.805,83.296 162.429,85.624 158.829,85.624 C157.365,85.624 156.14,85.24 155.228,84.424 C154.028,83.367 153.332,81.592 153.332,79.335 C153.332,74.799 155.708,72.471 159.308,72.471 C160.773,72.471 161.997,72.855 162.909,73.671 L162.909,73.671 Z" id="Fill-31" fill="#FFFFFF"></path>
                <path d="M172.004,82.936 L172.029,82.936 C173.205,79.743 174.357,76.335 175.101,72.951 C175.149,72.759 175.173,72.711 176.109,72.711 C177.069,72.711 177.261,72.734 177.166,73.167 C176.038,77.751 174.477,82.071 173.109,85.096 C172.989,85.359 172.796,85.384 171.836,85.384 C170.901,85.384 170.708,85.336 170.613,85.096 L166.22,73.047 C166.125,72.759 166.388,72.711 167.277,72.711 C168.14,72.711 168.476,72.782 168.548,72.975 L172.004,82.936" id="Fill-32" fill="#FFFFFF"></path>
                <path d="M182.324,84.016 C182.324,84.903 181.604,85.624 180.692,85.624 C179.803,85.624 179.083,84.903 179.083,84.016 C179.083,83.104 179.803,82.384 180.692,82.384 C181.604,82.384 182.324,83.104 182.324,84.016" id="Fill-33" fill="#FFFFFF"></path>
                <path d="M186.308,72.711 C187.22,72.711 187.316,72.807 187.316,72.999 L187.316,79.287 C187.316,81.184 187.388,82.168 187.916,82.815 C188.348,83.344 189.068,83.632 190.052,83.632 C190.988,83.632 192.092,83.319 192.668,82.768 C193.172,82.287 193.436,81.567 193.436,78.927 L193.436,72.999 C193.436,72.831 193.581,72.711 194.396,72.711 L194.613,72.711 C195.428,72.711 195.596,72.807 195.596,72.999 L195.596,81.184 C195.596,82.815 195.645,84.496 195.645,85.096 C195.645,85.288 195.573,85.384 194.661,85.384 L194.565,85.384 C193.724,85.384 193.581,85.288 193.581,85.096 L193.533,84.064 L193.508,84.064 C192.621,85.048 191.3,85.624 189.524,85.624 C188.228,85.624 187.124,85.191 186.332,84.352 C185.492,83.464 185.156,82.216 185.156,80.272 L185.156,72.999 C185.156,72.831 185.204,72.711 186.116,72.711 L186.308,72.711" id="Fill-34" fill="#FFFFFF"></path>
                <path d="M200.444,67.143 C201.404,67.143 201.428,67.263 201.428,67.431 L201.428,77.896 L202.892,76.527 C204.188,75.303 204.909,74.487 206.061,72.975 C206.205,72.782 206.325,72.711 207.212,72.711 C208.077,72.711 208.365,72.855 208.245,73.07 C207.765,73.959 206.205,75.879 204.26,77.751 L208.749,85.048 C208.845,85.216 208.725,85.384 207.813,85.384 L207.645,85.384 C206.733,85.384 206.493,85.312 206.373,85.12 L202.652,79.096 L201.428,80.176 L201.428,85.096 C201.428,85.264 201.404,85.384 200.444,85.384 L200.3,85.384 C199.34,85.384 199.268,85.288 199.268,85.096 L199.268,67.431 C199.268,67.238 199.34,67.143 200.3,67.143 L200.444,67.143" id="Fill-35" fill="#FFFFFF"></path>
            </g>
        </g>
    </g>
</svg>